# xmcd
#
# Track frame offsets: 
#        150
#        5758
#        24166
#        49478
#        52087
#        65835
#        70717
#        105059
#        107186
#        133027
#        152295
#        175696
#        203788
#        228893
#        232234
#        246762
#        271418
#        275410
#        301217
#        308580
#        336379
#        344187
#
# Disc length: 4672 seconds
#
# Revision: 0
# Processed by: cddbd v1.5.2PL0 Copyright (c) Steve Scherf et al.
# Submitted via: ExactAudioCopy v1.1
#
DISCID=3c123e16
DTITLE=Brotha Lynch Hung - Dinner and a Movie
DYEAR=2010
DGENRE=Rap Horrorcore
TTITLE0=Brotha Lynch Hung -  Don Rob -  First Degree the D.E. - Interrog
TTITLE0=ation (intro)
TTITLE1=Brotha Lynch Hung -  C-Lim -  G-Macc - Colostomy Bag
TTITLE2=Brotha Lynch Hung -  First Degree the D.E. - D.O.A.
TTITLE3=Brotha Lynch Hung -  Record Executive - Fucc Off! (skit)
TTITLE4=Sit in that Corner Bitch!
TTITLE5=Brotha Lynch Hung -  C.N.I. -  Don Rob -  First Degree the D.E. /
TTITLE5=I Know Who Did Dis (skit)
TTITLE6=Brotha Lynch Hung -  BZO -  G-Macc - Murder over Har (+ end skit
TTITLE6=)
TTITLE7=G (skit)
TTITLE8=Brotha Lynch Hung -  G-Macc - I Tried to Commit Suicide (+ end 
TTITLE8=skit)
TTITLE9=Brotha Lynch Hung -  G-Macc - Split Personality
TTITLE10=Brotha Lynch Hung -  First Degree the D.E. -  G-Macc - Meat (+ 
TTITLE10=end skit)
TTITLE11=Brotha Lynch Hung -  First Degree the D.E. -  G-Macc - Siccem!
TTITLE12=Brotha Lynch Hung -  BZO -  C-Lim -  First Degree the D.E. -  G-M
TTITLE12=acc -  Krizz Kaliko -  Tech N9ne - Don't Worry Momma, It's Just
TTITLE12=Bleeding (+ end skit)
TTITLE13=Brotha Lynch Hung -  Don Rob -  Ron Danzy - Police Is Here! Ama
TTITLE13=Hit U Bacc (skit)
TTITLE14=I Plotted (My Next Murder)
TTITLE15=Nutbagg
TTITLE16=Brotha Lynch Hung -  Don Rob -  Ron Danzy - Highspeed (skit)
TTITLE17=Brotha Lynch Hung -  C-Lim -  COS -  G-Smoothe -  Tall Cann G - I
TTITLE17=Heard That Song B 4 (+ end skit)
TTITLE18=I Hate Niggaz Get on the When They Around Me
TTITLE19=Brotha Lynch Hung -  Daz -  Kurupt -  Snoop Dogg - Anotha Killin
TTITLE20=Brotha Lynch Hung -  First Degree the D.E. -  Ron Danzy - Ama C
TTITLE20=atch Up (skit)
TTITLE21=Brotha Lynch Hung -  C.N.I. -  First Degree the D.E. - We Playe
TTITLE21=d You Like a Violin (skit)
EXTD=
EXTT0=
EXTT1=
EXTT2=
EXTT3=
EXTT4=
EXTT5=
EXTT6=
EXTT7=
EXTT8=
EXTT9=
EXTT10=
EXTT11=
EXTT12=
EXTT13=
EXTT14=
EXTT15=
EXTT16=
EXTT17=
EXTT18=
EXTT19=
EXTT20=
EXTT21=
PLAYORDER=
